<mxfile host="app.diagrams.net" agent="Mozilla/5.0 (Windows NT 10.0; Win64; x64) AppleWebKit/537.36 (KHTML, like Gecko) Chrome/131.0.0.0 Safari/537.36 Edg/131.0.0.0" version="24.8.6">
  <diagram name="Page-1" id="r7xiacxYiJjyUDb65VoB">
    <mxGraphModel dx="2946" dy="2207" grid="1" gridSize="10" guides="1" tooltips="1" connect="1" arrows="1" fold="1" page="1" pageScale="1" pageWidth="850" pageHeight="1100" math="0" shadow="0">
      <root>
        <mxCell id="0" />
        <mxCell id="1" parent="0" />
        <mxCell id="1sfsUjUnlTedrWkHCHkc-1" value="" style="edgeStyle=orthogonalEdgeStyle;rounded=0;orthogonalLoop=1;jettySize=auto;html=1;" edge="1" parent="1" source="1sfsUjUnlTedrWkHCHkc-2" target="1sfsUjUnlTedrWkHCHkc-4">
          <mxGeometry relative="1" as="geometry" />
        </mxCell>
        <mxCell id="1sfsUjUnlTedrWkHCHkc-2" value="Start" style="rounded=1;whiteSpace=wrap;html=1;" vertex="1" parent="1">
          <mxGeometry x="350" y="-770" width="120" height="50" as="geometry" />
        </mxCell>
        <mxCell id="1sfsUjUnlTedrWkHCHkc-3" value="" style="edgeStyle=orthogonalEdgeStyle;rounded=0;orthogonalLoop=1;jettySize=auto;html=1;" edge="1" parent="1" source="1sfsUjUnlTedrWkHCHkc-4" target="1sfsUjUnlTedrWkHCHkc-8">
          <mxGeometry relative="1" as="geometry" />
        </mxCell>
        <mxCell id="1sfsUjUnlTedrWkHCHkc-4" value="generaar random getal" style="rounded=0;whiteSpace=wrap;html=1;" vertex="1" parent="1">
          <mxGeometry x="350" y="-680" width="120" height="60" as="geometry" />
        </mxCell>
        <mxCell id="1sfsUjUnlTedrWkHCHkc-5" value="vraag getal aan gebruiker" style="shape=parallelogram;perimeter=parallelogramPerimeter;whiteSpace=wrap;html=1;fixedSize=1;" vertex="1" parent="1">
          <mxGeometry x="350" y="-590" width="120" height="60" as="geometry" />
        </mxCell>
        <mxCell id="1sfsUjUnlTedrWkHCHkc-6" style="edgeStyle=orthogonalEdgeStyle;rounded=0;orthogonalLoop=1;jettySize=auto;html=1;entryX=1;entryY=0.5;entryDx=0;entryDy=0;" edge="1" parent="1" target="1sfsUjUnlTedrWkHCHkc-5">
          <mxGeometry relative="1" as="geometry">
            <mxPoint x="470" y="-470" as="sourcePoint" />
            <mxPoint x="530" y="-610" as="targetPoint" />
            <Array as="points">
              <mxPoint x="580" y="-470" />
              <mxPoint x="580" y="-560" />
            </Array>
          </mxGeometry>
        </mxCell>
        <mxCell id="1sfsUjUnlTedrWkHCHkc-7" value="" style="edgeStyle=orthogonalEdgeStyle;rounded=0;orthogonalLoop=1;jettySize=auto;html=1;" edge="1" parent="1" source="1sfsUjUnlTedrWkHCHkc-8" target="1sfsUjUnlTedrWkHCHkc-10">
          <mxGeometry relative="1" as="geometry" />
        </mxCell>
        <mxCell id="1sfsUjUnlTedrWkHCHkc-8" value="als getal = randomgetal" style="rhombus;whiteSpace=wrap;html=1;" vertex="1" parent="1">
          <mxGeometry x="350" y="-510" width="120" height="80" as="geometry" />
        </mxCell>
        <mxCell id="1sfsUjUnlTedrWkHCHkc-9" value="" style="edgeStyle=orthogonalEdgeStyle;rounded=0;orthogonalLoop=1;jettySize=auto;html=1;" edge="1" parent="1" source="1sfsUjUnlTedrWkHCHkc-10" target="1sfsUjUnlTedrWkHCHkc-11">
          <mxGeometry relative="1" as="geometry" />
        </mxCell>
        <mxCell id="1sfsUjUnlTedrWkHCHkc-10" value="druk af dat het gedaan is" style="shape=parallelogram;perimeter=parallelogramPerimeter;whiteSpace=wrap;html=1;fixedSize=1;" vertex="1" parent="1">
          <mxGeometry x="350" y="-390" width="120" height="60" as="geometry" />
        </mxCell>
        <mxCell id="1sfsUjUnlTedrWkHCHkc-11" value="einde" style="rounded=1;whiteSpace=wrap;html=1;" vertex="1" parent="1">
          <mxGeometry x="350" y="-290" width="120" height="40" as="geometry" />
        </mxCell>
      </root>
    </mxGraphModel>
  </diagram>
</mxfile>
